<svg id="Capa_1" data-name="Capa 1" xmlns="http://www.w3.org/2000/svg" viewBox="0 0 440.01 109.94"><defs><style>.cls-1{fill:#ccc;}</style></defs><title>aztra</title><path class="cls-1" d="M19,107.48,26.23,87.8l6.91,19.68Zm21.2,19.83h6.64L29.61,79.94H23L5,127.3H11.7L17,112.79H35l5.16,14.52Z" transform="translate(-4.99 -20.03)"/><path class="cls-1" d="M61.3,110.94c-6.16-1.33-12.52-2.78-12.52-10.21,0-6.52,5.51-10.63,13.85-10.63,5.39,0,10.54,2,13.1,6.91l-5.6,2.34c-.45-1.31-3.35-4.61-8.19-4.61s-7.11,2.81-7.11,5.23c0,3.41,4.51,4.83,8.35,5.6,8,1.6,14.88,3.64,14.88,11.15C78.06,122.55,72.88,128,63,128c-7.29,0-12.46-2.44-15-7.53l6.39-1.11c1.6,2.79,4.5,4,8.82,4,5.36,0,8.49-2,8.49-5.91,0-4.09-5.14-5.39-10.44-6.53Z" transform="translate(-4.99 -20.03)"/><path class="cls-1" d="M91.33,91.19h6.54v5H91.33v20.49c0,4.25,0,6.07,2.58,6.07a15.45,15.45,0,0,0,4-.84v5a41.07,41.07,0,0,1-5.86.61c-7,0-7-3.4-6.92-8.1V96.23H79.38v-5h5.71v-8.6L91.33,80V91.19Z" transform="translate(-4.99 -20.03)"/><path class="cls-1" d="M109.37,91.29v6.45c3.42-6.8,9.89-7,12.33-7v6.2c-5.93,0-8.84,1.26-10.8,4.45-1.61,2.61-1.52,6.27-1.52,9.36V127.3h-6v-36Z" transform="translate(-4.99 -20.03)"/><polygon class="cls-1" points="186.56 59.92 186.56 65.83 159.76 101.59 187.24 101.59 187.24 107.27 152.44 107.27 152.44 101.12 179.38 65.76 152.46 65.76 152.46 59.92 186.56 59.92 186.56 59.92"/><path class="cls-1" d="M236.15,91.53v5.23a12.66,12.66,0,0,1,11.23-6.41c4.58,0,10.07,2.29,11.83,8.24a26.47,26.47,0,0,1,.61,7.37V127.3h-6V106.94c0-3.65,0-4.71-.38-5.93-1.07-3.42-4.43-4.94-7.71-4.94a9.31,9.31,0,0,0-6.88,2.73c-2.67,2.66-2.67,5.39-2.67,8.06v20.43h-6V91.53Z" transform="translate(-4.99 -20.03)"/><path class="cls-1" d="M329.33,120.94C327.08,124.48,323,128,315.6,128c-12.73,0-17.53-9.81-17.53-18.62,0-10.18,5.54-19.41,17-19.41,4.5,0,10.8,1.36,14.28,7.16l-5.66,2.36c-1.07-2.36-3.37-5.08-8.39-5.08-9.93,0-10.51,11.32-10.51,14.51,0,11.87,6.82,14.43,10.89,14.43,4.67,0,7-2.24,8.31-4.7l5.35,2.24Z" transform="translate(-4.99 -20.03)"/><path class="cls-1" d="M200.91,105.61H220c-.53-9.42-6-11-9.59-11-5.17,0-8.83,3.8-9.51,11ZM225,120.46c-2.06,3.51-6,7.53-13.88,7.53-10.63,0-16.75-7.23-16.75-19.34,0-13.53,8.92-18.7,16.52-18.7,6.6,0,12.94,3.65,15.06,12.69a32.43,32.43,0,0,1,.69,7.3H200.76c-.15,6,2.37,13.63,10.88,13.48a8.55,8.55,0,0,0,7.47-4.1l5.87,1.13Z" transform="translate(-4.99 -20.03)"/><path class="cls-1" d="M269.63,105.61h19.1c-.53-9.42-6-11-9.59-11C274,94.61,270.31,98.41,269.63,105.61Zm24.08,14.85c-2.06,3.51-6,7.53-13.88,7.53-10.63,0-16.75-7.23-16.75-19.34,0-13.52,8.92-18.71,16.52-18.71,6.6,0,12.93,3.65,15.06,12.69a32.56,32.56,0,0,1,.68,7.3H269.46c-.15,6,2.38,13.63,10.88,13.48a8.54,8.54,0,0,0,7.48-4.1l5.87,1.13Z" transform="translate(-4.99 -20.03)"/><path class="cls-1" d="M362.36,127.34h-6.28a40.59,40.59,0,0,1-.72-5.31c-1.83,1.89-5.21,5.82-12.06,5.82s-12.19-4.15-12.19-10.23a9.77,9.77,0,0,1,1.6-5.41c2.06-3,5.88-5.48,16.6-6.32l5.7-.46v-.91c0-3.73,0-10-8-10-5,0-6.77,2.45-7.36,4.66l-5.6-2.24.29-.59c2.14-4,6.33-6.39,12.4-6.39,3.34,0,7.66.84,10.48,3,4,3,3.91,9,3.91,9l.24,18.47s.21,5.36,1,6.87Zm-8.26-9.93c.91-2,1-2.81,1-8.07-2.35.38-5.53.84-9.43,1.68-6.69,1.44-7.83,4-7.83,6.47,0,2.89,2.28,5.33,6.77,5.33,4.18,0,7.76-1.67,9.5-5.41Z" transform="translate(-4.99 -20.03)"/><path class="cls-1" d="M153.17,127.34h-6.29a40.54,40.54,0,0,1-.72-5.31c-1.83,1.89-5.21,5.82-12.05,5.82-7,0-12.19-4.15-12.19-10.23a9.75,9.75,0,0,1,1.6-5.41c2.06-3,5.88-5.48,16.59-6.32l5.71-.46v-.91c0-3.73,0-10-8-10-5.05,0-6.77,2.45-7.36,4.66l-5.6-2.24c.09-.19.19-.39.3-.59,2.14-4,6.33-6.39,12.39-6.39,3.34,0,7.66.84,10.48,3,4,3,3.91,9,3.91,9l.24,18.47s.21,5.36,1,6.87Zm-8.26-9.93c.92-2,1-2.81,1-8.07-2.35.38-5.53.84-9.43,1.68-6.69,1.44-7.83,4-7.83,6.47,0,2.89,2.28,5.33,6.77,5.33,4.18,0,7.75-1.67,9.5-5.41Z" transform="translate(-4.99 -20.03)"/><path class="cls-1" d="M445,77.45a4.5,4.5,0,0,0-.1-.66,8.65,8.65,0,0,0-1-2.58,15.35,15.35,0,0,0-.87-1.33,6.79,6.79,0,0,0-.61-.71,7.74,7.74,0,0,0-.76-.71,19.7,19.7,0,0,0-1.9-1.4,38.15,38.15,0,0,0-4.51-2.53c-1.9-.84-3.75-1.83-5.71-2.51l-13.23-4.6c0-2.52.07-5,0-7.55-.11-3.73-.26-7.47-.55-11.19-.2-2.59-.51-5.18-.92-7.74-.31-2-.79-4-1.24-6a13.48,13.48,0,0,0-.4-1.33c-.13-.4-.28-.79-.44-1.17a10.42,10.42,0,0,0-.48-1c-.17-.31-.33-.6-.51-.89a7.78,7.78,0,0,0-.53-.76c-.19-.24-.35-.44-.54-.64s-.36-.37-.55-.54a6.88,6.88,0,0,0-.55-.44,5,5,0,0,0-.54-.35,4.43,4.43,0,0,0-.53-.27,8.94,8.94,0,0,0-1-.35,6.4,6.4,0,0,0-.84-.16,5.27,5.27,0,0,0-.64,0H405a9.72,9.72,0,0,0-2.35.46,10.09,10.09,0,0,0-1.23.51,14.6,14.6,0,0,0-1.29.73c-.45.28-.88.57-1.3.89a25.39,25.39,0,0,0-2.16,1.72q-4.14,3.89-8.13,8c-1.41,1.44-2.78,2.93-4.07,4.49-5.1,6.17-10.17,12.37-15.08,18.69-2.18,2.81-4.14,5.78-6.15,8.7a24.27,24.27,0,0,0-1.41,2.26c-.76,1.35-1.46,2.73-2.15,4.12a10.51,10.51,0,0,0-.46,1.12c-.13.36-.25.73-.35,1.1a7.68,7.68,0,0,0-.21,1.07,5.82,5.82,0,0,0,0,1,1.9,1.9,0,0,0,.11.49,3,3,0,0,0,.23.49,4.2,4.2,0,0,0,.33.49,4.77,4.77,0,0,0,.42.48c.33.32.66.64,1,.93a13.14,13.14,0,0,0,1.14.85c.69.45,1.4.87,2.11,1.29a9.32,9.32,0,0,0,1,.5l-.33-.18h0l.52.27c4.36,2.28,8.73,4.52,13.07,6.83s8.72,4.66,13,7.08l9.68,5.44c-3.36,2.54-6.79,5-10.08,7.63a43.67,43.67,0,0,0-3.57,3.25,37.56,37.56,0,0,0-2.62,2.92,27.14,27.14,0,0,0-1.82,2.55,19.5,19.5,0,0,0-1.17,2.15,14,14,0,0,0-.66,1.73,9.79,9.79,0,0,0-.29,1.27,6.73,6.73,0,0,0-.07.79v1a6.23,6.23,0,0,0,.07.66,5.75,5.75,0,0,0,.13.62,5.66,5.66,0,0,0,.44,1.11,3.74,3.74,0,0,0,.29.49,8,8,0,0,0,.72.88,6.92,6.92,0,0,0,.86.73,8.49,8.49,0,0,0,1,.61,10.55,10.55,0,0,0,1,.49,6.7,6.7,0,0,0,1.09.39c1.35.3,2.72.57,4.09.76a9.59,9.59,0,0,0,2,.08c2.34-.18,4.68-.42,7-.79,2.71-.43,5.39-1,8.07-1.58,3.16-.69,6.31-1.42,9.43-2.24a52.66,52.66,0,0,0,6.58-2c1.67-.68,3.35-1.33,5-2a10,10,0,0,0,1.07-.57,10.33,10.33,0,0,0,.92-.6,7.14,7.14,0,0,0,.75-.6,4.41,4.41,0,0,0,.54-.61,3.42,3.42,0,0,0,.35-.61,3,3,0,0,0,.19-.59,2.72,2.72,0,0,0,.06-.57,2.9,2.9,0,0,0-.06-.55,3.2,3.2,0,0,0-.15-.52,3.88,3.88,0,0,0-.24-.5,4.82,4.82,0,0,0-.3-.47,4.39,4.39,0,0,0-.35-.43,10.45,10.45,0,0,0-.75-.74,8.53,8.53,0,0,0-.72-.56q-.36-.25-.75-.48c-1.72-1-3.44-2.1-5.17-3.12l-7.27-4.29c4.41-3,8.87-5.93,13.24-9,1.87-1.3,3.71-2.66,5.48-4.09,1.52-1.23,3-2.54,4.38-3.88.67-.64,1.27-1.35,1.88-2a12.62,12.62,0,0,0,.78-1,7.7,7.7,0,0,0,.62-1c.57-1.13,1.13-2.26,1.6-3.44a8.93,8.93,0,0,0,.38-1.5,5.53,5.53,0,0,0,.09-.71V77.45ZM390.68,47.74c2.46-2.56,4.93-5.11,7.44-7.62.46-.46,1-.87,1.45-1.3.17-.15.35-.29.53-.43a4.05,4.05,0,0,1,.43-.31,2.15,2.15,0,0,1,.33-.17,1.82,1.82,0,0,1,.38-.12,2,2,0,0,1,.42,0h.21l.21.09.2.14a1.73,1.73,0,0,1,.2.19,2.06,2.06,0,0,1,.19.25,1.75,1.75,0,0,1,.18.32,8.38,8.38,0,0,1,.31,1c.11.46.21.94.28,1.41.18,1.16.34,2.32.47,3.48.17,1.5.29,3,.43,4.52l.75,8-8.94-2.06-8.35-1.37-2-.15h-.66c1.85-2,3.69-3.93,5.56-5.87Zm-5.6,11.2h.18l.31.09.81.31,1.1.49L396,63.47l5.65,2.41,3.72,1.59.33.15c.2,2.94.45,5.88.6,8.83.12,2.3.17,4.6.23,6.91v.87a1.25,1.25,0,0,1,0,.49,3.64,3.64,0,0,1-.1.48,2,2,0,0,1-.4.74,1.11,1.11,0,0,1-.18.16l-.21.14-.25.11-.29.08h-.74l-.4-.08a2.92,2.92,0,0,1-.41-.13,8.17,8.17,0,0,1-.85-.41,9.05,9.05,0,0,1-.9-.59,11.14,11.14,0,0,1-.92-.75c-.29-.26-.64-.58-.94-.89-.64-.69-1.28-1.39-1.88-2.12-1.08-1.32-2.2-2.61-3.15-4-1.31-2-2.65-3.88-3.92-5.85a40.08,40.08,0,0,1-2.2-3.67l-2.87-5.69-.62-1.81-.14-.54-.09-.52V58.9Zm31.73,50.43c.77.49,1.55,1,2.31,1.47,1,.65,2,1.29,2.93,2,.69.5,1.34,1,2,1.58a9.08,9.08,0,0,1,.82.79c.21.23.39.48.58.73a.09.09,0,0,1,0,.06.47.47,0,0,1,0,.13.18.18,0,0,1,0,.07l-.09.06H425c-3.77.28-7.55.54-11.32.84L399,118.26h-.46l.21-.23.93-.82c1.91-1.42,3.76-2.93,5.73-4.26l8.35-5.66,3.17,2Zm11.35-29a2.17,2.17,0,0,1-.16.39,2.34,2.34,0,0,1-.27.41,9.36,9.36,0,0,1-.8.86,20.18,20.18,0,0,1-1.9,1.62c-2.34,1.66-4.66,3.36-7,5-1.63,1.12-3.32,2.16-5,3.23l-9.68,6.22-4.11-2.36-17.54-10c-4-2.37-7.94-4.69-11.88-7.1-.74-.45-1.44-1-2.15-1.48-.22-.16-.43-.34-.65-.51l-.21-.15c-.15-.14-.3-.28-.44-.43a2.19,2.19,0,0,1-.22-.3,2.24,2.24,0,0,1-.19-.35,1.7,1.7,0,0,1-.11-.39,1.59,1.59,0,0,1,0-.42,2.16,2.16,0,0,1,.12-.45,2.69,2.69,0,0,1,.21-.46,8.68,8.68,0,0,1,.57-.86,10.22,10.22,0,0,1,.78-.9c2.26-2.33,4.57-4.63,6.84-7l6.14-6.26.29,1,.75,1.78,0,.11c1.62,2.81,3.15,5.69,4.87,8.44,2,3.16,4.1,6.24,6.23,9.31,1,1.44,2,2.85,3.13,4.21a44.73,44.73,0,0,0,3,3.44,34.66,34.66,0,0,0,3,2.66,14.86,14.86,0,0,0,1.67,1.09,7.43,7.43,0,0,0,.85.42,8.55,8.55,0,0,0,.84.32,8.32,8.32,0,0,0,.85.22,7,7,0,0,0,.79.12,6.06,6.06,0,0,0,.72,0,5.57,5.57,0,0,0,.67-.06,5.09,5.09,0,0,0,.61-.13,4.9,4.9,0,0,0,.55-.19,5,5,0,0,0,.49-.24,3.72,3.72,0,0,0,.44-.28,8.22,8.22,0,0,0,.74-.61,5.17,5.17,0,0,0,.55-.61,9,9,0,0,0,.58-.86,12.63,12.63,0,0,0,.59-1.12,12.26,12.26,0,0,0,.53-1.31c.31-.93.6-1.87.83-2.82a29.87,29.87,0,0,0,.8-3.9l.79-7.65c1.81.85,3.67,1.61,5.44,2.54s3.39,1.95,5.07,2.95a4.44,4.44,0,0,1,.56.4,9.32,9.32,0,0,1,.72.66,2.8,2.8,0,0,1,.32.4,2.11,2.11,0,0,1,.37.91,1,1,0,0,1,0,.24,1.1,1.1,0,0,1,0,.25Z" transform="translate(-4.99 -20.03)"/></svg>