<svg id="Capa_1" data-name="Capa 1" xmlns="http://www.w3.org/2000/svg" viewBox="0 0 442.67 104.24"><defs><style>.cls-1{fill:#ccc;}</style></defs><title>moderna</title><path id="path704" class="cls-1" d="M425.14,120.64h-6.48c-1.5,0-2.24,1-2.24,3.24s.75,3.24,2.24,3.24h25.19c1.5,0,2.49-1,2.49-3.24s-.75-3.24-2.49-3.24Z" transform="translate(-3.67 -22.88)"/><path id="path706" class="cls-1" d="M387,120.64h-6.48c-1.5,0-2.49,1-2.49,3.24s1,3.24,2.49,3.24h24.94c1.5,0,2.24-1,2.24-3.24s-.75-3.24-2.24-3.24Z" transform="translate(-3.67 -22.88)"/><path id="path708" class="cls-1" d="M350.57,120.64h-6.48c-1.5,0-2.24,1-2.24,3.24s.75,3.24,2.24,3.24H369c1.5,0,2.49-1,2.49-3.24s-.75-3.24-2.49-3.24Z" transform="translate(-3.67 -22.88)"/><path id="path710" class="cls-1" d="M312.41,120.64h-6.48c-1.5,0-2.49,1-2.49,3.24s.75,3.24,2.49,3.24h24.94c1.5,0,2.49-1,2.49-3.24s-.75-3.24-2.49-3.24Z" transform="translate(-3.67 -22.88)"/><path id="path712" class="cls-1" d="M274.25,120.64h-6.48c-1.5,0-2.49,1-2.49,3.24s.75,3.24,2.49,3.24h24.94c1.5,0,2.49-1,2.49-3.24s-.75-3.24-2.49-3.24Z" transform="translate(-3.67 -22.88)"/><path id="path714" class="cls-1" d="M238.09,120.64h-6.48c-1.5,0-2.49,1-2.49,3.24s.75,3.24,2.49,3.24h24.94c1.5,0,2.49-1,2.49-3.24s-.75-3.24-2.49-3.24Z" transform="translate(-3.67 -22.88)"/><path id="path716" class="cls-1" d="M199.69,120.64H193.2c-1.5,0-2.49,1-2.49,3.24s.75,3.24,2.49,3.24h24.94c1.75,0,2.49-1,2.49-3.24s-.75-3.24-2.49-3.24Z" transform="translate(-3.67 -22.88)"/><path id="path718" class="cls-1" d="M161.53,120.64H155c-1.5,0-2.49,1-2.49,3.24s.75,3.24,2.49,3.24H180c1.5,0,2.24-1,2.24-3.24s-.75-3.24-2.24-3.24Z" transform="translate(-3.67 -22.88)"/><path id="path720" class="cls-1" d="M125.37,120.64h-6.48c-1.5,0-2.49,1-2.49,3.24s.75,3.24,2.49,3.24h24.94c1.5,0,2.49-1,2.49-3.24s-.75-3.24-2.49-3.24Z" transform="translate(-3.67 -22.88)"/><path id="path722" class="cls-1" d="M87,120.64H80.48c-1.5,0-2.49,1-2.49,3.24s.75,3.24,2.49,3.24h24.94c1.5,0,2.49-1,2.49-3.24s-.75-3.24-2.49-3.24Z" transform="translate(-3.67 -22.88)"/><path id="path724" class="cls-1" d="M48.81,120.64H42.32c-1.5,0-2.24,1-2.24,3.24s.75,3.24,2.24,3.24H67.26c1.5,0,2.49-1,2.49-3.24s-.75-3.24-2.49-3.24Z" transform="translate(-3.67 -22.88)"/><path id="path726" class="cls-1" d="M12.64,120.64H6.16c-1.5,0-2.24,1-2.24,3.24s.75,3.24,2.24,3.24H31.1c1.5,0,2.49-1,2.49-3.24s-.75-3.24-2.49-3.24Z" transform="translate(-3.67 -22.88)"/><path id="path728" class="cls-1" d="M3.92,43.33h6.73V52.8a23,23,0,0,1,7.23-7.48,20.75,20.75,0,0,1,10.72-3.24,17.89,17.89,0,0,1,7.23,1.5,13.09,13.09,0,0,1,5.49,4.24A22.26,22.26,0,0,1,45.07,55a28.87,28.87,0,0,1,8.48-9.73,18.9,18.9,0,0,1,11-3.24,19.09,19.09,0,0,1,9.73,2.74,17.92,17.92,0,0,1,6.23,8,43.41,43.41,0,0,1,2,15V97.45h-7V67.77a39.16,39.16,0,0,0-1.25-12A9.78,9.78,0,0,0,70,50.56a13.41,13.41,0,0,0-7-2,14.42,14.42,0,0,0-9,3,17.42,17.42,0,0,0-6,8A52.93,52.93,0,0,0,46.31,76V97.2H39.58V69.76a46.69,46.69,0,0,0-1.25-13.22,10.34,10.34,0,0,0-4.24-5.49,10,10,0,0,0-7-2,13.72,13.72,0,0,0-8.73,3,18.1,18.1,0,0,0-6,7.73,43.41,43.41,0,0,0-2,15V97.45H3.67V43.33Z" transform="translate(-3.67 -22.88)"/><path id="path730" class="cls-1" d="M122.87,49.06a19.66,19.66,0,0,0-14.71,6.48,22.7,22.7,0,0,0-6.23,15.71,23.84,23.84,0,0,0,2.74,11,20.88,20.88,0,0,0,7.48,8,20.49,20.49,0,0,0,20.7,0,17.88,17.88,0,0,0,7.48-8,24.64,24.64,0,0,0,2.74-11,22.68,22.68,0,0,0-5.74-15.71,17.64,17.64,0,0,0-14.46-6.48Zm0-7a25.41,25.41,0,0,1,20.2,9.23,29.74,29.74,0,0,1-.5,39.65,24.87,24.87,0,0,1-19.7,8.48,26.22,26.22,0,0,1-20-8.48,28.28,28.28,0,0,1-7.73-20,29,29,0,0,1,7.48-19.7A25.41,25.41,0,0,1,122.87,42.08Z" transform="translate(-3.67 -22.88)"/><path id="path732" class="cls-1" d="M189.21,49.06a21.15,21.15,0,0,0-10.47,2.74,21.55,21.55,0,0,0-7.73,8,22.86,22.86,0,0,0,0,21.95A20.49,20.49,0,0,0,178.74,90a19.63,19.63,0,0,0,10.47,3,20.48,20.48,0,0,0,10.72-3,19.23,19.23,0,0,0,7.73-7.73A24.65,24.65,0,0,0,210.16,71a21.81,21.81,0,0,0-6-15.71A21.36,21.36,0,0,0,189.21,49.06ZM216.4,22.88V97.94h-6.73V88.72a32.35,32.35,0,0,1-9.48,8,27.83,27.83,0,0,1-11.72,2.74A25.9,25.9,0,0,1,169.26,91a28,28,0,0,1-8-20.2,28.09,28.09,0,0,1,8-20,25,25,0,0,1,19.45-8.23,27,27,0,0,1,11.72,2.74,25.15,25.15,0,0,1,9.23,8.48V22.88Z" transform="translate(-3.67 -22.88)"/><path id="path734" class="cls-1" d="M277,65.27a24.23,24.23,0,0,0-4-9,19,19,0,0,0-7-5.49,16.36,16.36,0,0,0-9-2,19,19,0,0,0-13.47,5.24,23.82,23.82,0,0,0-6.23,11.22ZM277,80l5.74,3.24a34.25,34.25,0,0,1-6.48,9.23,27.56,27.56,0,0,1-8.48,5.49,30.78,30.78,0,0,1-10.47,1.75A24.73,24.73,0,0,1,236.85,91a30.27,30.27,0,0,1-7.48-19.7A29,29,0,0,1,235.6,52.8a25.66,25.66,0,0,1,21.2-10.47A26.36,26.36,0,0,1,278.74,52.8a31.54,31.54,0,0,1,6,18.7H236.6a22.3,22.3,0,0,0,6,15.46,18.16,18.16,0,0,0,14.22,6,21.6,21.6,0,0,0,8-1.5,18.46,18.46,0,0,0,6.48-3.74A62.16,62.16,0,0,0,277,80Z" transform="translate(-3.67 -22.88)"/><path id="path736" class="cls-1" d="M295,43.33h7.23v8a22.5,22.5,0,0,1,6.73-7,12.46,12.46,0,0,1,13.72-.5l-3.74,6a10.45,10.45,0,0,0-3.74-1,9.64,9.64,0,0,0-6.73,2.74,17.87,17.87,0,0,0-5,9,78.73,78.73,0,0,0-1.25,18.7V97.45H295Z" transform="translate(-3.67 -22.88)"/><path id="path738" class="cls-1" d="M331.12,43.33h6.48v9.73a27.55,27.55,0,0,1,8.73-8.23,21.87,21.87,0,0,1,10.47-2.74,18.8,18.8,0,0,1,10.22,3,17.48,17.48,0,0,1,6.48,8.23,44.78,44.78,0,0,1,2.24,16.21V97.45h-6.48V71.76a52.42,52.42,0,0,0-.75-12.47,13,13,0,0,0-4.49-8,14.93,14.93,0,0,0-8.48-2.74,16.76,16.76,0,0,0-10.72,4,20.76,20.76,0,0,0-6.23,10.22,95.11,95.11,0,0,0-1,14.71v20h-6.48Z" transform="translate(-3.67 -22.88)"/><path id="path740" class="cls-1" d="M416.66,48.81a19,19,0,0,0-10.47,3A20.49,20.49,0,0,0,398.45,60a22.86,22.86,0,0,0,0,21.95,20.49,20.49,0,0,0,7.73,8.23,19.63,19.63,0,0,0,10.47,3,20.48,20.48,0,0,0,10.72-3,18.4,18.4,0,0,0,7.73-8A24.65,24.65,0,0,0,437.6,71a21.42,21.42,0,0,0-6-15.71A20.6,20.6,0,0,0,416.66,48.81Zm27.18-5.49V97.94h-6.73V88.72a31.12,31.12,0,0,1-9.73,8.23,27.83,27.83,0,0,1-11.72,2.74,25.9,25.9,0,0,1-19.2-8.48,28.21,28.21,0,0,1-8-20.45,29.11,29.11,0,0,1,8-20.2,25,25,0,0,1,19.45-8.23,24.11,24.11,0,0,1,11.72,3,25.15,25.15,0,0,1,9.23,8.48v-10Z" transform="translate(-3.67 -22.88)"/></svg>