<svg id="Capa_1" data-name="Capa 1" xmlns="http://www.w3.org/2000/svg" viewBox="0 0 316.56 129.46"><defs><style>.cls-1{fill:#ccc;}</style></defs><title>pfizer</title><path class="cls-1" d="M223.81,139.73l19-67.38s3.6-15.12,7.74-22.5S263,39.42,265.64,39.17a31.33,31.33,0,0,1,11.53.83c4.51,1.52,6.46,4.7,6.77,6,1.65,6.46-3.17,9.27-6.34,9.39-3.54.18-5.67-1.77-6.16-3s-.85-4.15.79-5.73a3.11,3.11,0,0,0-.24-4.09,8.19,8.19,0,0,0-6.71,1.34c-2.38,1.52-5.49,8.66-6.1,10.67C258.81,55.7,255.76,68,255.76,68l23.48.06-10.43,36h-11.1L265,73.75H253.69l-17.81,65.92Z" transform="translate(-66.72 -10.27)"/><path class="cls-1" d="M238.44,61.31c-2.68-8.72-16.65-9.57-16.65-9.57l-18.36-.24-14.64,53.05H201l4.45-17.32a80,80,0,0,0,11.1-.49c12-1.65,16.46-6.59,16.46-6.59C235,78,241.13,70.09,238.44,61.31Zm-15,13.42a12.57,12.57,0,0,1-8,5.43c-.91.18-2,.61-7.87.55L214,57h5c3.66.43,6.89,1.77,7.87,5.49C227.59,65.4,224.54,73.38,223.44,74.73Z" transform="translate(-66.72 -10.27)"/><polygon class="cls-1" points="216.6 57.93 247.82 57.93 224.78 88.61 241.54 88.61 239.9 94.4 206.84 94.4 230.75 64.46 214.78 64.46 216.6 57.93"/><path class="cls-1" d="M344.61,87.35c2.74-9.57-2-19.82-12.93-19.82s-20,9.7-20.67,17.5.85,20.79,17.62,20.79A20.26,20.26,0,0,0,342,101.25l-2.5-6a11.69,11.69,0,0,1-11,3.9c-7.2-1.1-7.07-8.6-6.4-11.65C325,87.47,344.61,87.35,344.61,87.35Zm-13.84-14c7.38,0,4.57,8.6,4.57,8.6H322.6c-.06,0,.79-8.63,8.17-8.63Z" transform="translate(-66.72 -10.27)"/><path class="cls-1" d="M365.59,68.32H354.37l-9.63,35.25h11.65S360,83.26,367.06,76.25c2.5-2.5,4.88-.67,5.55,1.65s4.57,4.88,8.48,1.65,2.38-10.24-2.93-11.4S366.5,72,364,75.34Z" transform="translate(-66.72 -10.27)"/><path class="cls-1" d="M87.64,33.56l6.1-23.29S118.62,11.79,150.2,24s32.56,27.2,32.2,29S177,77,177,77C176.18,47,113.37,35.33,87.64,33.56Z" transform="translate(-66.72 -10.27)"/><path class="cls-1" d="M124.53,68.51l-5.85,23s51,7.81,58.3-14.57a22,22,0,0,0-3.84-11.71C169,70,139.41,71.25,124.53,68.51Z" transform="translate(-66.72 -10.27)"/><path class="cls-1" d="M161.49,103.45l-6.1,23.29S130.51,125.22,99,113,66.41,85.8,66.77,84s5.37-24,5.37-24C73,90,135.75,101.68,161.49,103.45Z" transform="translate(-66.72 -10.27)"/><path class="cls-1" d="M124.59,68.51l5.85-23s-51-7.81-58.3,14.57A22,22,0,0,0,76,71.74C80.08,67,109.65,65.76,124.59,68.51Z" transform="translate(-66.72 -10.27)"/></svg>