<svg id="Capa_1" data-name="Capa 1" xmlns="http://www.w3.org/2000/svg" viewBox="0 0 443.36 75.08"><defs><style>.cls-1{fill:#999;}.cls-2{fill:#ccc;}</style></defs><title>sinovac</title><polygon class="cls-1" points="66.36 1.97 66.36 10.26 66.36 64.51 66.36 72.79 84.69 72.79 84.69 64.51 84.69 10.26 84.69 1.97 66.36 1.97"/><path class="cls-2" d="M246.48,75.1c0,11.55-3.26,20.59-9.29,27.12S222.12,112,211.07,112s-19.84-3.26-26.12-9.79-9.29-15.57-9.29-27.12S179,54.25,185,47.72,200,38,211.32,38s20.09,3.26,26.37,9.79c5.78,6.28,8.79,15.57,8.79,27.37m-17.33,0a29.1,29.1,0,0,0-4.77-17.58,16.83,16.83,0,0,0-26.62,0A29.1,29.1,0,0,0,193,75.1a29.1,29.1,0,0,0,4.77,17.58,17,17,0,0,0,26.87,0,31.76,31.76,0,0,0,4.52-17.58" transform="translate(-3.32 -37.46)"/><polygon class="cls-2" points="299.16 1.97 317.24 1.97 292.88 72.79 271.79 72.79 247.68 1.97 265.76 1.97 282.34 52.95 299.16 1.97"/><path class="cls-1" d="M4.64,109.25V95.19a66.37,66.37,0,0,0,21.1,3.52q12.81,0,12.81-6.78a6.55,6.55,0,0,0-1.76-4.27,45.06,45.06,0,0,0-9.79-5c-9.29-3.77-15.32-7.28-18.33-10a19.87,19.87,0,0,1,1-28.08l0,0a13.93,13.93,0,0,1,2-1.51,36.18,36.18,0,0,1,20.84-5.53A120.89,120.89,0,0,1,53.61,40V52.49a81.76,81.76,0,0,0-19.09-3c-8,0-12,2.26-12,6.53A4.47,4.47,0,0,0,25,60c3.52,2,7.28,3.77,11.05,5.53a67.87,67.87,0,0,1,17.58,10,18.42,18.42,0,0,1,5.27,13.11,19.54,19.54,0,0,1-10,17.58,41.55,41.55,0,0,1-21.1,5A85.35,85.35,0,0,1,5.14,109Z" transform="translate(-3.32 -37.46)"/><polygon class="cls-1" points="98.25 72.79 98.25 1.97 120.85 1.97 145.97 49.19 145.97 1.97 160.03 1.97 160.03 72.79 138.94 72.79 112.31 24.58 112.31 72.79 98.25 72.79"/><polygon class="cls-2" points="329.3 72.79 311.22 72.79 335.32 1.97 356.42 1.97 380.78 72.79 362.45 72.79 345.87 21.81 329.3 72.79"/><path class="cls-2" d="M445.88,96.44A77.9,77.9,0,0,1,428.81,99a24,24,0,0,1-17.58-6.53,23,23,0,0,1-6.53-17.58,24,24,0,0,1,6.53-17.58,23.27,23.27,0,0,1,17.33-6.78,60.39,60.39,0,0,1,17.58,3.26V41a32,32,0,0,0-7-1.76,45,45,0,0,0-11.55-1c-12.31,0-21.85,3.52-29.13,10.3s-10.8,15.82-10.8,27.37,3.52,20.34,10.8,26.87,17.08,9.79,29.63,9.79a50.83,50.83,0,0,0,10.8-1c2.76-.5,5.27-1,7.79-1.51V97h-.75Z" transform="translate(-3.32 -37.46)"/></svg>